# xmcd
#
# Track frame offsets:
#	150
#	13887
#	24810
#	41322
#	53402
#	68290
#	82955
#	102392
#	116430
#	134482
#	154147
#	171355
#	190555
#
# Disc length: 2767
#
# Revision: 3
# Processed by: cddbd v1.5.1PL0 Copyright (c) Steve Scherf et al.
# Submitted via: DiscPlay 4.0.4
# Normalized: r1:DSETVAR1,TSWAP
#
DISCID=930acd0d
DTITLE=Various Artist - Country Superstar Hits
DYEAR=1900
DGENRE=
TTITLE0=Terri Clark - When Boy Meets Girl
TTITLE1=Alan Jackson - She's got the rhythm
TTITLE2=Trisha Yearwood - You don't have to move that mountain
TTITLE3=Clint Black - I'll Take Texas
TTITLE4=Bryan White - Between Now and Forever
TTITLE5=Martina McBride - Safe in the arms of love
TTITLE6=Vince Gill - Down To New Orleans
TTITLE7=Patty Loveless - I'm That Kind Of Girl
TTITLE8=Steve Warriner - If I Could Make A Livin'
TTITLE9=The Mavericks - All You Ever Do Is Bring Me Down
TTITLE10=Kevin Sharp - Love At The End Of The Road
TTITLE11=George Strait - I Can Still Make Cheyenne
TTITLE12=Lyle Lovett - Don't Touch My Hat
EXTD=
EXTT0=
EXTT1=
EXTT2=
EXTT3=
EXTT4=
EXTT5=
EXTT6=
EXTT7=
EXTT8=
EXTT9=
EXTT10=
EXTT11=
EXTT12=
PLAYORDER=
